<?xml version="1.0" standalone="no"?><!DOCTYPE svg PUBLIC "-//W3C//DTD SVG 1.1//EN" "http://www.w3.org/Graphics/SVG/1.1/DTD/svg11.dtd"><svg t="1590821365706" class="icon" viewBox="0 0 1024 1024" version="1.1" xmlns="http://www.w3.org/2000/svg" p-id="3778" xmlns:xlink="http://www.w3.org/1999/xlink" width="200" height="200"><defs><style type="text/css"></style></defs><path d="M0 0m125.582536 0l772.834928 0q125.582536 0 125.582536 125.582536l0 772.834928q0 125.582536-125.582536 125.582536l-772.834928 0q-125.582536 0-125.582536-125.582536l0-772.834928q0-125.582536 125.582536-125.582536Z" fill="#DAD7D0" p-id="3779"></path><path d="M179.959774 521.669855h664.080452v292.984057H179.959774z" fill="#373737" p-id="3780"></path><path d="M154.96885 187.243561h709.541329v357.910229h-709.541329zM154.96885 804.984057h713.936718v31.646799H154.96885zM186.364484 691.959774h648.005886v22.228109h-648.005886z" fill="#6A6D76" p-id="3781"></path><path d="M170.415502 806.61663V541.009566h16.702477v265.607064zM511.120922 807.872455V691.959774h16.702478v115.912681zM834.495953 806.61663V543.144469h16.702477v263.472161z" fill="#6A6D76" p-id="3782"></path><path d="M252.295315 545.15379v65.428501h31.897964v-16.451312h16.32573v16.451312h32.400294v-65.428501h-80.623988z" fill="#FFFFFF" p-id="3783"></path><path d="M268.118715 545.15379v49.228354h16.074564v-18.460633h16.451313v18.460633h16.451312v-49.228354h-48.977189z" p-id="3784"></path><path d="M398.347805 545.15379v65.428501h31.897964v-16.451312h16.200147v16.451312h32.400294v-65.428501h-80.498405z" fill="#FFFFFF" p-id="3785"></path><path d="M414.171204 545.15379v49.228354h16.074565v-18.460633h16.32573v18.460633h16.451312v-49.228354h-48.851607z" p-id="3786"></path><path d="M543.395634 545.15379v65.428501h31.897964v-16.451312h16.32573v16.451312h32.274712v-65.428501h-80.498406z" fill="#FFFFFF" p-id="3787"></path><path d="M559.219034 545.15379v49.228354h16.074564v-18.460633h16.451312v18.460633h16.32573v-49.228354h-48.851606z" p-id="3788"></path><path d="M688.945793 545.15379v65.428501h31.897965v-16.451312h16.325729v16.451312h32.274712v-65.428501h-80.498406z" fill="#FFFFFF" p-id="3789"></path><path d="M704.769193 545.15379v49.228354h16.074565v-18.460633h16.325729v18.460633h16.451313v-49.228354h-48.851607z" p-id="3790"></path></svg>